<?xml version="1.0" encoding="UTF-8"?>
<svg width="36px" height="35px" viewBox="0 0 36 35" version="1.1" xmlns="http://www.w3.org/2000/svg" xmlns:xlink="http://www.w3.org/1999/xlink">
    <!-- Generator: Sketch 52.5 (67469) - http://www.bohemiancoding.com/sketch -->
    <title>Group 4</title>
    <desc>Created with Sketch.</desc>
    <g id="R2" stroke="none" stroke-width="1" fill="none" fill-rule="evenodd">
        <g id="FDR_hp_alejandra_graybg_test2" transform="translate(-697.000000, -541.000000)">
            <g id="Reasons" transform="translate(0.000000, 510.000000)">
                <g id="Group-4" transform="translate(698.000000, 32.000000)">
                    <ellipse id="Oval-Copy" stroke="#003087" cx="17" cy="16.5" rx="17" ry="16.5"></ellipse>
                    <path d="M22.8727273,19.2814106 C22.8727273,20.3219418 22.4779145,21.1807498 21.6882772,21.8578601 C20.8986399,22.5349705 19.7954867,22.9615054 18.3787845,23.1374776 L18.3787845,25.8 L16.8808036,25.8 L16.8808036,23.2407651 C16.0137509,23.2407651 15.1738062,23.1738202 14.3609442,23.0399283 C13.5480823,22.9060364 12.8823197,22.7205033 12.3636364,22.4833234 L12.3636364,20.6930066 C13.0061844,20.9760923 13.7474259,21.2075305 14.5873832,21.3873282 C15.4273405,21.5671258 16.1918064,21.6570233 16.8808036,21.6570233 L16.8808036,16.6074118 C15.2937875,16.1100991 14.1809575,15.53246 13.5422803,14.874477 C12.903603,14.216494 12.5842692,13.3672497 12.5842692,12.3267185 C12.5842692,11.3244421 12.9771466,10.5019757 13.7629131,9.85929468 C14.5486796,9.21661364 15.5879661,8.82642029 16.8808036,8.68870293 L16.8808036,6.6 L18.3787845,6.6 L18.3787845,8.66575015 C19.8032283,8.70400497 21.1773314,8.98708642 22.5011351,9.51500299 L21.8972978,11.01841 C20.7438081,10.5670031 19.570982,10.2992234 18.3787845,10.2150628 L18.3787845,15.1958159 C19.5942066,15.5783641 20.5038242,15.9513431 21.1076645,16.3147639 C21.7115048,16.6781847 22.1566368,17.095156 22.4430738,17.5656904 C22.7295109,18.0362247 22.8727273,18.6081257 22.8727273,19.2814106 Z M20.8986439,19.4306037 C20.8986439,18.8797342 20.7263972,18.4340722 20.3818985,18.0936043 C20.0373999,17.7531364 19.3697019,17.4145863 18.3787845,17.0779438 L18.3787845,21.5422594 C20.0586992,21.3127305 20.8986439,20.6088523 20.8986439,19.4306037 Z M14.5467403,12.3037657 C14.5467403,12.885239 14.7209224,13.3519409 15.0692918,13.7038852 C15.4176612,14.0558296 16.0214924,14.3886416 16.8808036,14.7023311 L16.8808036,10.2609683 C16.1143909,10.3833838 15.533784,10.6224728 15.1389653,10.9782427 C14.7441467,11.3340125 14.5467403,11.7758491 14.5467403,12.3037657 Z" id="$" fill="#003087"></path>
                </g>
            </g>
        </g>
    </g>
</svg>