<?xml version="1.0" encoding="UTF-8"?>
<svg width="36px" height="35px" viewBox="0 0 36 35" version="1.1" xmlns="http://www.w3.org/2000/svg" xmlns:xlink="http://www.w3.org/1999/xlink">
    <!-- Generator: Sketch 52.5 (67469) - http://www.bohemiancoding.com/sketch -->
    <title>Group 3</title>
    <desc>Created with Sketch.</desc>
    <g id="R2" stroke="none" stroke-width="1" fill="none" fill-rule="evenodd">
        <g id="FDR_hp_alejandra_graybg_test2" transform="translate(-466.000000, -541.000000)">
            <g id="Reasons" transform="translate(0.000000, 510.000000)">
                <g id="Group-3" transform="translate(467.000000, 32.000000)">
                    <ellipse id="Oval-Copy-2" stroke="#003087" cx="17" cy="16.5" rx="17" ry="16.5"></ellipse>
                    <path d="M6.09749948,28.9392 C9.01436909,31.1404752 13.225795,33 17,33 C20.774205,33 25.0366713,31.1404752 27.9535409,28.9392 C26.6496512,27.3237775 24.7377231,26.8462574 22.7915356,26.3425663 C21.7316231,25.9170535 21.4024353,25.7752158 20.9779879,25.4535683 L20.6970327,25.1989307 C20.2544982,24.8002218 19.7974938,24.3892277 19.6660598,23.4153505 L19.6612366,20.5752475 L19.8300508,20.4133069 C20.4992789,19.7700119 20.9213146,18.7246574 21.351791,17.354305 L21.5953659,16.5781069 L22.0861331,16.9198574 C22.2320369,16.7925386 22.4406431,16.5345505 22.5214328,16.1983842 C22.6203097,15.7851564 22.5961934,15.489196 22.5600189,15.3607604 L22.1006029,15.2245069 L22.1970682,14.6884277 C23.13037,11.6618139 23.0990188,9.03055842 22.1150727,7.8210297 C21.7183591,7.33520792 21.1781534,7.09955644 20.4618986,7.09955644 L20.1351224,7.10960792 L19.9795721,7.02472871 C19.5864759,6.8091802 19.3899279,6.56012673 19.2464357,6.3792 C19.0426528,6.12121188 18.8810734,5.91683168 17.3762147,5.91683168 L17.1736375,5.91906535 C15.1792174,5.91906535 13.7008866,6.44174257 12.7712023,7.47592871 C11.4701265,8.92110891 11.151791,11.3703208 11.821019,14.7576713 L11.9307483,15.3160871 L11.5304173,15.3775129 C11.4918312,15.516 11.4653032,15.8019089 11.5448871,16.1950337 C11.6365291,16.6451168 11.9608937,16.962297 12.0682114,17.0069703 L12.5203925,16.9902178 L12.5577728,17.3766416 C13.0895378,18.866495 13.612862,19.8191525 14.203712,20.3719842 L14.3701147,20.5272238 L14.3785554,20.7450059 C14.3990543,21.3112396 14.4617567,23.193101 14.3689089,23.6655208 C14.2579738,24.2172356 13.9529022,24.7186931 13.435607,25.1978139 C12.9255468,25.6713505 12.2997281,25.9539089 11.3206053,26.311295 C9.29965717,26.8306218 7.12328976,27.3462458 6.09749948,28.9392 Z M5.38919494,28.9392 L4.94545455,28.5773465 L5.32769831,28.1596515 C6.45393072,26.922202 8.44835087,25.8891327 10.9395673,25.2536554 C11.8318714,24.9241901 12.2623478,24.7064079 12.5830949,24.4082139 C12.9267526,24.0910337 13.1172715,23.7894891 13.1823856,23.4622574 C13.2270008,23.2377743 13.2161485,22.0472317 13.179974,20.9929426 C12.5625961,20.3440634 12.0235962,19.3768871 11.5075068,17.984198 C10.9757418,17.7262099 10.5030618,17.0963168 10.3595697,16.4027644 C10.2088427,15.6589545 10.2956614,15.0324119 10.5778224,14.6582733 C9.92065256,11.0821782 10.3463057,8.42523564 11.8451354,6.7600396 C13.0147772,5.46004752 14.8042085,4.80223366 17.1651968,4.80223366 L17.3762147,4.8 C19.3416952,4.8 19.7938763,5.1808396 20.2183237,5.71915248 C20.301525,5.82301782 20.3666391,5.9067802 20.4667218,5.98272475 C21.5543681,5.98384158 22.4563187,6.38701782 23.0761083,7.14869703 C24.2553966,8.59611089 24.3976829,11.3636198 23.4728218,14.6046653 C23.7995981,14.9754535 23.8900343,15.6444356 23.6995153,16.4418535 C23.5210545,17.1800792 22.9567325,17.8434772 22.388793,18.0445069 C21.9691689,19.3210455 21.54231,20.2893386 20.8670528,21.016396 L20.8670528,23.3472238 C20.9418135,23.8609663 21.1540371,24.0519446 21.5374867,24.3970455 L21.7931198,24.632697 C22.0330772,24.8102733 22.2453009,24.905204 23.1966899,25.2938614 C25.5830004,25.9047683 27.5569216,26.9322535 28.6747133,28.1596515 L29.0545455,28.5773465 L28.6120109,28.9392 C25.4009221,31.5581703 21.2770304,33 17.0012058,33 C12.7241754,33 8.60148954,31.5581703 5.38919494,28.9392 Z" id="Fill-176" fill="#003087"></path>
                </g>
            </g>
        </g>
    </g>
</svg>